<svg width="2405" height="721" viewBox="0 0 2405 721" fill="none" xmlns="http://www.w3.org/2000/svg">
<path d="M1147.5 129C1146.7 127.4 1144.5 126.333 1143.5 126C1147 134 1151 156 1151.5 160C1152 164 1146 172 1142.5 175.5C1139 179 1129.5 183 1126.5 184C1123.5 185 1108 183.5 1103.5 182C1099 180.5 1093.5 176.5 1091.5 174.5C1089.5 172.5 1085 168.5 1084 161.5C1083.2 155.9 1085 147.167 1086 143.5C1085.5 143.5 1083.5 144.7 1079.5 149.5C1075.5 154.3 1068.5 154.833 1065.5 154.5C1063.83 154 1059.4 151.9 1055 147.5C1049.5 142 1039.5 138 1037 136.5C1034.5 135 1031 133.5 1029.5 133.5C1028 133.5 1023 127.5 1019.5 123C1016 118.5 1019.5 113.5 1021.5 110C1023.5 106.5 1033 101.5 1058.5 96C1078.9 91.6 1110.67 96.5 1124 99.5C1123 98.1667 1120.8 94.8 1120 92C1119 88.5 1121.5 88 1124 87.5C1126 87.1 1130.17 91.6667 1132 94C1131.5 73.5 1135 64 1143.5 37.5C1152 11 1172.5 2 1178 1C1183.5 1.66893e-06 1188.5 15.5 1189 21.5C1189.5 27.5 1192 37.5 1195 42C1198 46.5 1199.5 59.5 1199.5 61.5C1199.5 63.1 1188.17 69.8333 1182.5 73H1195C1197 73 1205 78.5 1208 80.5C1211 82.5 1213 84.5 1214 88C1214.55 89.923 1214.5 92.7639 1214.5 95V103C1214.5 108 1214 111.5 1213.5 115C1213.09 117.886 1210.5 121.5 1210.5 123C1210.5 124.5 1203 131.5 1201.5 133.5C1200 135.5 1193 139 1190.5 140.5C1188 142 1178.5 142 1176.5 140.5C1174.5 139 1168.5 135 1166.5 133.5C1164.5 132 1147.5 119.5 1147.5 121.5C1147.5 123.5 1155.5 131 1158 135C1160.5 139 1163 144 1161 145C1159 146 1155.5 142 1155.5 142C1155.5 142 1148.5 131 1147.5 129Z" fill="#FE6E00"/>
<path d="M250.35 702.1C334.2 702.1 401.8 671.55 446 616.3L364.1 542.2C335.5 576.65 300.4 595.5 256.85 595.5C182.1 595.5 130.1 543.5 130.1 465.5C130.1 387.5 182.1 335.5 256.85 335.5C300.4 335.5 335.5 354.35 364.1 388.8L446 314.7C401.8 259.45 334.2 228.9 250.35 228.9C106.05 228.9 0.0999756 327.05 0.0999756 465.5C0.0999756 603.95 106.05 702.1 250.35 702.1Z" fill="#FE6E00"/>
<path d="M2271.1 693H2405L2203.5 238H2076.75L1875.9 693H2007.2L2042.95 604.6H2235.35L2271.1 693ZM2080.65 509.7L2139.15 364.1L2197.65 509.7H2080.65Z" fill="#FE6E00"/>
<path d="M727.5 249H595.5L781.5 685.5H904.5L1090.5 249H969L847.5 533L727.5 249Z" fill="#FE6E00"/>
<path d="M1696 249H1574V413H1405V264L1226 227V721L1405 685.5V517H1574V685.5H1696V249Z" fill="#FE6E00"/>
<path d="M1272 266H1154V679H1272" stroke="#FE6E00" stroke-width="20"/>
<circle cx="1271.5" cy="492.5" r="22.5" fill="#2B2523"/>
</svg>
